<?xml version="1.0" ?><!DOCTYPE svg  PUBLIC '-//W3C//DTD SVG 1.1//EN'  'http://www.w3.org/Graphics/SVG/1.1/DTD/svg11.dtd'><svg enable-background="new 0 0 64 64" height="64px" id="Dribbble" version="1.1" viewBox="0 0 64 64" width="64px" xml:space="preserve" xmlns="http://www.w3.org/2000/svg" xmlns:xlink="http://www.w3.org/1999/xlink"><linearGradient gradientTransform="matrix(1 0 0 -1 -274 -299)" gradientUnits="userSpaceOnUse" id="Circle_Shadow_1_" x1="338.0293" x2="306.0293" y1="-362.9995" y2="-330.9995"><stop offset="0.3163" style="stop-color:#FFFFFF;stop-opacity:0"/><stop offset="0.3508" style="stop-color:#E9E9E9;stop-opacity:0.0504"/><stop offset="0.4543" style="stop-color:#ACACAC;stop-opacity:0.2018"/><stop offset="0.5572" style="stop-color:#787878;stop-opacity:0.3523"/><stop offset="0.6569" style="stop-color:#4D4D4D;stop-opacity:0.4981"/><stop offset="0.7528" style="stop-color:#2B2B2B;stop-opacity:0.6385"/><stop offset="0.8441" style="stop-color:#131313;stop-opacity:0.7719"/><stop offset="0.9286" style="stop-color:#050505;stop-opacity:0.8956"/><stop offset="1" style="stop-color:#000000"/></linearGradient><polygon enable-background="new    " fill="url(#Circle_Shadow_1_)" id="Circle_Shadow" opacity="0.2" points="64.029,64   64.029,30.059 49,15.029 15.059,48.971 30.088,64 "/><circle cx="32" cy="32" fill="#E62387" id="Circle" r="24"/><g id="ball_shadow"><g><defs><circle cx="32.029" cy="32" id="SVGID_1_" r="24"/></defs><clipPath id="SVGID_2_"><use overflow="visible" xlink:href="#SVGID_1_"/></clipPath><linearGradient gradientTransform="matrix(1 0 0 -1 -274 -299)" gradientUnits="userSpaceOnUse" id="SVGID_3_" x1="348.6221" x2="295.4084" y1="-373.606" y2="-320.3923"><stop offset="0.5459" style="stop-color:#000000;stop-opacity:0"/><stop offset="1" style="stop-color:#000000"/></linearGradient><path clip-path="url(#SVGID_2_)" d="M74.574,53.352    c-0.035-0.035-0.069-0.069-0.105-0.104c-0.035-0.036-0.07-0.072-0.105-0.106c-0.036-0.037-0.072-0.072-0.109-0.108    c-0.035-0.036-0.07-0.07-0.105-0.105c-0.035-0.034-0.069-0.069-0.104-0.104s-0.069-0.07-0.104-0.105s-0.069-0.068-0.104-0.104    c-0.037-0.038-0.074-0.075-0.112-0.112c-0.035-0.035-0.07-0.069-0.104-0.104s-0.068-0.068-0.104-0.104    c-0.035-0.036-0.07-0.07-0.105-0.107c-0.036-0.035-0.071-0.07-0.107-0.106c-0.037-0.037-0.072-0.073-0.109-0.11    c-0.033-0.033-0.067-0.066-0.102-0.1c-0.035-0.035-0.068-0.07-0.104-0.105c-0.036-0.035-0.072-0.072-0.109-0.109    c-0.035-0.034-0.07-0.07-0.105-0.105c-0.037-0.037-0.074-0.072-0.111-0.109c-0.034-0.035-0.068-0.068-0.104-0.104    s-0.07-0.07-0.104-0.105c-0.035-0.035-0.071-0.07-0.106-0.105s-0.07-0.07-0.105-0.105c-0.035-0.037-0.071-0.071-0.106-0.106    c-0.034-0.035-0.071-0.071-0.106-0.106s-0.072-0.072-0.108-0.108c-0.035-0.034-0.069-0.068-0.104-0.103    c-0.035-0.037-0.071-0.072-0.107-0.109c-0.035-0.034-0.068-0.068-0.104-0.104s-0.071-0.07-0.106-0.105    c-0.035-0.036-0.071-0.071-0.106-0.106c-0.035-0.034-0.07-0.071-0.105-0.106c-0.036-0.035-0.073-0.072-0.109-0.108    c-0.033-0.034-0.068-0.067-0.104-0.103c-0.036-0.037-0.072-0.072-0.108-0.108c-0.034-0.034-0.067-0.068-0.103-0.103    c-0.036-0.037-0.073-0.074-0.111-0.111c-0.034-0.034-0.068-0.068-0.104-0.104c-0.037-0.036-0.07-0.071-0.106-0.106    c-0.034-0.033-0.067-0.068-0.104-0.104c-0.035-0.037-0.072-0.072-0.108-0.109s-0.073-0.072-0.11-0.109    c-0.033-0.034-0.068-0.066-0.104-0.102c-0.033-0.035-0.067-0.069-0.104-0.104c-0.035-0.037-0.072-0.073-0.107-0.108    s-0.071-0.072-0.106-0.106c-0.036-0.037-0.073-0.073-0.11-0.109c-0.033-0.034-0.067-0.069-0.103-0.104    c-0.036-0.036-0.072-0.071-0.108-0.107c-0.035-0.034-0.068-0.069-0.104-0.104c-0.035-0.034-0.071-0.07-0.105-0.105    c-0.045-0.047-0.082-0.082-0.117-0.117c-0.037-0.035-0.071-0.07-0.106-0.105c-0.035-0.036-0.071-0.071-0.106-0.106    c-0.035-0.036-0.072-0.071-0.108-0.108c-0.034-0.034-0.069-0.068-0.104-0.104s-0.07-0.072-0.106-0.107    c-0.035-0.034-0.069-0.068-0.104-0.104c-0.035-0.036-0.07-0.07-0.105-0.105s-0.071-0.071-0.106-0.106    c-0.034-0.035-0.069-0.069-0.104-0.104c-0.036-0.037-0.072-0.074-0.11-0.11c-0.033-0.033-0.067-0.067-0.103-0.103    c-0.037-0.037-0.075-0.076-0.113-0.113c-0.033-0.033-0.067-0.066-0.102-0.101c-0.035-0.034-0.068-0.069-0.104-0.104    c-0.035-0.036-0.071-0.071-0.105-0.107c-0.035-0.034-0.07-0.069-0.105-0.104c-0.038-0.038-0.075-0.075-0.113-0.113    c-0.033-0.034-0.068-0.068-0.104-0.104c-0.034-0.035-0.069-0.068-0.104-0.104c-0.036-0.036-0.071-0.072-0.108-0.107    c-0.034-0.035-0.069-0.07-0.104-0.104c-0.035-0.036-0.069-0.072-0.106-0.106c-0.035-0.037-0.07-0.072-0.105-0.106    c-0.035-0.035-0.07-0.071-0.105-0.106c-0.037-0.037-0.074-0.074-0.111-0.111c-0.034-0.032-0.067-0.066-0.102-0.101    c-0.035-0.034-0.072-0.071-0.106-0.106c-0.035-0.035-0.071-0.07-0.106-0.105s-0.07-0.07-0.105-0.105    c-0.036-0.037-0.072-0.072-0.108-0.108c-0.034-0.034-0.067-0.067-0.103-0.103c-0.036-0.037-0.072-0.074-0.109-0.109    c-0.036-0.036-0.072-0.071-0.107-0.107c-0.035-0.035-0.068-0.068-0.104-0.103c-0.037-0.037-0.073-0.073-0.109-0.11    c-0.033-0.033-0.068-0.066-0.103-0.102c-0.036-0.037-0.073-0.073-0.11-0.11c-0.033-0.034-0.066-0.067-0.102-0.103    c-0.037-0.037-0.075-0.074-0.112-0.111c-0.035-0.035-0.069-0.068-0.104-0.104c-0.035-0.037-0.071-0.072-0.107-0.107    c-0.033-0.034-0.066-0.066-0.102-0.102c-0.035-0.037-0.071-0.072-0.108-0.109c-0.034-0.034-0.067-0.068-0.104-0.104    c-0.037-0.039-0.076-0.076-0.113-0.113c-0.032-0.032-0.064-0.064-0.098-0.098c-0.037-0.039-0.076-0.076-0.115-0.115    c-0.032-0.033-0.066-0.066-0.102-0.102c-0.035-0.036-0.07-0.07-0.105-0.105s-0.071-0.071-0.106-0.106    c-0.036-0.036-0.071-0.071-0.106-0.106s-0.069-0.069-0.105-0.104c-0.035-0.036-0.07-0.072-0.105-0.106    c-0.035-0.035-0.071-0.072-0.106-0.106c-0.037-0.037-0.074-0.074-0.11-0.111c-0.033-0.032-0.068-0.065-0.103-0.1    c-0.035-0.036-0.071-0.072-0.107-0.108c-0.034-0.035-0.069-0.07-0.104-0.105c-0.035-0.034-0.071-0.07-0.106-0.105    c-0.036-0.036-0.071-0.07-0.106-0.107c-0.034-0.033-0.067-0.067-0.104-0.103c-0.038-0.039-0.078-0.078-0.117-0.116    c-0.031-0.033-0.064-0.064-0.099-0.099c-0.035-0.035-0.071-0.071-0.106-0.106c-0.033-0.033-0.067-0.068-0.104-0.104    c-0.037-0.038-0.074-0.075-0.112-0.112c-0.034-0.034-0.069-0.069-0.104-0.104c-0.035-0.034-0.071-0.07-0.106-0.105    s-0.068-0.068-0.104-0.104c-0.038-0.039-0.076-0.076-0.114-0.114c-0.032-0.032-0.063-0.063-0.097-0.095    c-0.036-0.039-0.074-0.076-0.111-0.113c-0.034-0.034-0.068-0.068-0.104-0.104c-0.037-0.037-0.074-0.074-0.11-0.11    c-0.033-0.033-0.067-0.067-0.103-0.101c-0.037-0.039-0.074-0.076-0.111-0.113c-0.034-0.034-0.069-0.068-0.104-0.104    c-0.034-0.035-0.071-0.072-0.106-0.107c-0.033-0.033-0.067-0.067-0.103-0.102c-0.036-0.037-0.071-0.072-0.108-0.109    c-0.034-0.035-0.07-0.07-0.105-0.105s-0.07-0.07-0.105-0.105c-0.035-0.037-0.071-0.072-0.106-0.106    c-0.037-0.037-0.074-0.074-0.11-0.111c-0.035-0.032-0.068-0.067-0.103-0.101c-0.035-0.036-0.071-0.071-0.106-0.106    c-0.035-0.034-0.07-0.071-0.105-0.106c-0.034-0.034-0.069-0.068-0.104-0.104c-0.037-0.037-0.074-0.074-0.111-0.111    c-0.035-0.035-0.069-0.069-0.104-0.104c-0.037-0.037-0.073-0.073-0.11-0.11c-0.033-0.033-0.066-0.065-0.101-0.1    c-0.037-0.037-0.073-0.074-0.11-0.111c-0.033-0.033-0.067-0.066-0.102-0.101c-0.037-0.038-0.074-0.075-0.111-0.112    c-0.033-0.031-0.066-0.064-0.099-0.099c-0.039-0.039-0.078-0.078-0.118-0.117c-0.031-0.032-0.064-0.065-0.098-0.099    c-0.038-0.037-0.076-0.075-0.115-0.113c-0.031-0.032-0.064-0.064-0.098-0.098c-0.035-0.036-0.071-0.073-0.108-0.109    c-0.035-0.036-0.071-0.07-0.106-0.105c-0.035-0.037-0.07-0.071-0.106-0.107c-0.035-0.036-0.071-0.071-0.106-0.107    c-0.035-0.035-0.07-0.07-0.105-0.104c-0.036-0.035-0.071-0.07-0.105-0.105c-0.035-0.034-0.07-0.069-0.104-0.104    c-0.036-0.036-0.072-0.072-0.109-0.108c-0.034-0.035-0.069-0.07-0.106-0.107c-0.033-0.033-0.067-0.067-0.103-0.103    c-0.036-0.037-0.073-0.073-0.11-0.11c-0.033-0.033-0.067-0.067-0.103-0.103c-0.038-0.038-0.076-0.075-0.112-0.112    c-0.033-0.033-0.066-0.065-0.101-0.1c-0.036-0.036-0.072-0.072-0.108-0.107c-0.035-0.037-0.072-0.072-0.107-0.108    c-0.033-0.034-0.067-0.067-0.102-0.103c-0.037-0.037-0.074-0.074-0.113-0.111c-0.033-0.035-0.068-0.069-0.104-0.104    c-0.036-0.036-0.07-0.071-0.107-0.106c-0.033-0.034-0.068-0.069-0.104-0.104c-0.037-0.037-0.074-0.073-0.111-0.11    c-0.033-0.033-0.065-0.066-0.1-0.101c-0.037-0.036-0.072-0.072-0.109-0.108c-0.033-0.035-0.068-0.07-0.104-0.104    c-0.037-0.037-0.074-0.074-0.111-0.111c-0.033-0.033-0.068-0.068-0.104-0.103c-0.036-0.037-0.073-0.073-0.109-0.109    c-0.033-0.034-0.068-0.069-0.104-0.104c-0.036-0.035-0.072-0.071-0.108-0.107c-0.034-0.034-0.067-0.068-0.103-0.104    c-0.037-0.037-0.073-0.072-0.11-0.109c-0.035-0.035-0.069-0.068-0.104-0.104s-0.07-0.071-0.104-0.105    c-0.036-0.037-0.072-0.073-0.108-0.109c-0.035-0.037-0.072-0.072-0.109-0.107c-0.033-0.034-0.067-0.068-0.103-0.104    c-0.034-0.035-0.071-0.07-0.106-0.105c-0.033-0.035-0.068-0.069-0.104-0.104c-0.035-0.036-0.072-0.073-0.111-0.11    c-0.035-0.037-0.07-0.071-0.106-0.107c-0.033-0.033-0.065-0.066-0.099-0.1c-0.037-0.037-0.074-0.074-0.111-0.111    c-0.036-0.036-0.071-0.071-0.105-0.105c-0.035-0.035-0.07-0.07-0.105-0.104c-0.035-0.036-0.07-0.071-0.105-0.106    c-0.035-0.037-0.072-0.074-0.109-0.11c-0.034-0.035-0.069-0.069-0.104-0.104c-0.036-0.036-0.071-0.072-0.106-0.107    c-0.035-0.035-0.069-0.069-0.104-0.104c-0.036-0.037-0.073-0.073-0.108-0.109c-0.035-0.035-0.069-0.069-0.104-0.104    c-0.037-0.038-0.075-0.075-0.112-0.112c-0.031-0.033-0.063-0.065-0.098-0.098c-0.038-0.039-0.077-0.077-0.116-0.116    c-0.032-0.032-0.063-0.064-0.096-0.097c-0.039-0.039-0.077-0.077-0.116-0.116c-0.033-0.033-0.066-0.065-0.1-0.098    c-0.037-0.039-0.076-0.076-0.114-0.114c-0.032-0.033-0.065-0.066-0.099-0.099c-0.037-0.037-0.072-0.073-0.108-0.109    c-0.035-0.036-0.071-0.071-0.106-0.106c-0.035-0.037-0.072-0.073-0.108-0.109c-0.033-0.034-0.067-0.068-0.103-0.102    c-0.037-0.038-0.074-0.075-0.113-0.113c-0.032-0.034-0.066-0.067-0.102-0.102c-0.035-0.036-0.07-0.071-0.105-0.106    c-0.036-0.036-0.071-0.072-0.107-0.107c-0.033-0.035-0.068-0.069-0.104-0.104c-0.036-0.037-0.073-0.074-0.11-0.11    c-0.035-0.035-0.069-0.07-0.104-0.104c-0.035-0.037-0.072-0.073-0.109-0.109c-0.032-0.033-0.064-0.066-0.1-0.099    c-0.037-0.039-0.076-0.077-0.115-0.115c-0.033-0.034-0.066-0.068-0.102-0.102c-0.035-0.036-0.07-0.071-0.105-0.106    c-0.035-0.036-0.071-0.071-0.106-0.106c-0.034-0.035-0.069-0.07-0.104-0.105c-0.035-0.036-0.071-0.071-0.106-0.107    c-0.037-0.037-0.073-0.074-0.11-0.111c-0.033-0.033-0.065-0.065-0.1-0.098c-0.036-0.037-0.072-0.073-0.109-0.11    c-0.035-0.036-0.07-0.071-0.105-0.106c-0.037-0.038-0.075-0.074-0.112-0.111c-0.032-0.033-0.063-0.065-0.097-0.097    c-0.037-0.038-0.075-0.075-0.113-0.113c-0.033-0.035-0.068-0.07-0.104-0.105c-0.036-0.036-0.072-0.072-0.108-0.108    c-0.034-0.034-0.067-0.068-0.103-0.102c-0.035-0.036-0.071-0.072-0.107-0.108c-0.035-0.036-0.07-0.071-0.105-0.106    c-0.035-0.036-0.071-0.071-0.106-0.106c-0.035-0.036-0.071-0.071-0.106-0.106c-0.037-0.037-0.072-0.074-0.109-0.11    c-0.034-0.034-0.068-0.067-0.102-0.101c-0.037-0.036-0.072-0.072-0.109-0.108c-0.034-0.036-0.069-0.071-0.105-0.106    c-0.035-0.035-0.07-0.07-0.105-0.105c-0.034-0.036-0.07-0.071-0.105-0.106c-0.035-0.036-0.07-0.071-0.105-0.106    c-0.037-0.036-0.072-0.072-0.108-0.108c-0.033-0.034-0.067-0.067-0.103-0.101c-0.037-0.039-0.076-0.076-0.113-0.114    c-0.033-0.034-0.067-0.067-0.102-0.1c-0.035-0.035-0.068-0.07-0.104-0.105c-0.036-0.037-0.072-0.073-0.107-0.109    c-0.037-0.037-0.074-0.073-0.111-0.11c-0.033-0.034-0.067-0.067-0.103-0.101c-0.036-0.038-0.073-0.074-0.11-0.111    c-0.033-0.034-0.066-0.068-0.102-0.102c-0.037-0.037-0.072-0.073-0.109-0.11c-0.035-0.036-0.07-0.071-0.106-0.106    c-0.034-0.034-0.067-0.068-0.103-0.102c-0.035-0.036-0.07-0.072-0.106-0.107c-0.035-0.036-0.071-0.072-0.106-0.108    c-0.037-0.036-0.106-0.098-0.143-0.134c-0.035-0.035-0.069-0.07-0.104-0.104c-0.037-0.036-0.072-0.072-0.108-0.108    c-0.035-0.035-0.069-0.069-0.104-0.104c-0.035-0.036-0.07-0.071-0.105-0.106c-0.036-0.036-0.072-0.072-0.108-0.108    c-0.034-0.035-0.069-0.07-0.104-0.104c-0.034-0.035-0.069-0.07-0.104-0.104c-0.036-0.037-0.071-0.073-0.108-0.108    c-0.035-0.036-0.069-0.071-0.104-0.106c-0.036-0.037-0.073-0.073-0.108-0.109c-0.035-0.034-0.067-0.068-0.103-0.102    c-0.036-0.037-0.073-0.074-0.11-0.11c-0.033-0.035-0.068-0.069-0.104-0.104c-0.037-0.037-0.073-0.073-0.109-0.109    c-0.035-0.035-0.07-0.07-0.105-0.105c-0.034-0.036-0.069-0.071-0.105-0.106c-0.033-0.035-0.068-0.07-0.104-0.104    c-0.034-0.035-0.069-0.07-0.104-0.104c-0.038-0.039-0.075-0.077-0.114-0.114c-0.031-0.033-0.063-0.065-0.097-0.097    c-0.038-0.038-0.075-0.075-0.112-0.113c-0.035-0.035-0.07-0.07-0.104-0.105c-0.036-0.036-0.072-0.072-0.108-0.108    c-0.033-0.034-0.066-0.067-0.102-0.101c-0.036-0.037-0.072-0.073-0.109-0.11c-0.035-0.036-0.07-0.071-0.105-0.106    s-0.07-0.07-0.105-0.105c-0.035-0.036-0.07-0.071-0.105-0.106c-0.036-0.036-0.072-0.072-0.108-0.108    c-0.035-0.035-0.069-0.07-0.104-0.104c-0.035-0.036-0.07-0.07-0.105-0.105c-0.035-0.036-0.07-0.071-0.105-0.106    c-0.037-0.036-0.071-0.072-0.107-0.107C39.932,18.709,36.162,17,32,17c-8.271,0-15,6.74-15,15c0,4.157,1.707,7.927,4.455,10.648    c0.035,0.035,0.071,0.07,0.106,0.105c0.035,0.036,0.071,0.071,0.106,0.105c0.036,0.037,0.071,0.072,0.106,0.106    c0.036,0.036,0.072,0.072,0.108,0.108c0.035,0.035,0.07,0.068,0.105,0.104c0.035,0.036,0.071,0.071,0.107,0.106    c0.034,0.034,0.068,0.069,0.103,0.104c0.037,0.036,0.073,0.072,0.11,0.109c0.035,0.035,0.071,0.07,0.106,0.105    c0.034,0.035,0.068,0.068,0.103,0.104c0.036,0.036,0.071,0.07,0.107,0.107c0.037,0.037,0.074,0.072,0.111,0.109    c0.034,0.034,0.068,0.068,0.103,0.104s0.071,0.07,0.107,0.106c0.035,0.034,0.069,0.069,0.104,0.104    c0.037,0.037,0.073,0.072,0.11,0.109c0.035,0.035,0.07,0.07,0.106,0.105c0.035,0.035,0.071,0.07,0.106,0.105    c0.034,0.034,0.068,0.067,0.102,0.103c0.038,0.038,0.075,0.075,0.113,0.112c0.034,0.035,0.068,0.068,0.103,0.104    c0.036,0.036,0.072,0.072,0.108,0.107c0.035,0.035,0.07,0.07,0.105,0.104c0.035,0.035,0.07,0.07,0.106,0.104    c0.035,0.037,0.071,0.072,0.106,0.106c0.036,0.037,0.072,0.072,0.108,0.108c0.034,0.035,0.068,0.068,0.103,0.103    c0.037,0.037,0.073,0.074,0.11,0.11c0.035,0.035,0.069,0.068,0.104,0.104c0.036,0.036,0.071,0.071,0.106,0.106    c0.036,0.036,0.072,0.071,0.108,0.108c0.035,0.035,0.07,0.069,0.105,0.104s0.07,0.069,0.105,0.104    c0.037,0.037,0.073,0.072,0.11,0.108c0.033,0.033,0.066,0.066,0.099,0.101c0.037,0.037,0.075,0.074,0.113,0.113    c0.035,0.034,0.07,0.068,0.105,0.104c0.035,0.035,0.07,0.07,0.105,0.105c0.036,0.035,0.072,0.071,0.108,0.107    c0.034,0.033,0.068,0.066,0.102,0.102c0.038,0.037,0.075,0.075,0.113,0.112c0.034,0.034,0.068,0.067,0.102,0.103    c0.036,0.035,0.072,0.071,0.108,0.107c0.035,0.036,0.071,0.071,0.107,0.105c0.034,0.035,0.068,0.068,0.102,0.104    c0.037,0.037,0.073,0.073,0.11,0.109c0.036,0.035,0.071,0.072,0.107,0.106c0.035,0.035,0.07,0.07,0.105,0.105    c0.035,0.034,0.07,0.069,0.106,0.104c0.035,0.035,0.071,0.071,0.106,0.106c0.036,0.036,0.072,0.071,0.109,0.108    c0.033,0.033,0.067,0.066,0.101,0.102c0.037,0.037,0.074,0.074,0.111,0.111c0.035,0.035,0.07,0.069,0.105,0.104    c0.036,0.035,0.071,0.071,0.107,0.106c0.035,0.035,0.071,0.07,0.107,0.105c0.035,0.035,0.069,0.07,0.104,0.104    c0.035,0.037,0.071,0.072,0.106,0.106c0.035,0.035,0.071,0.071,0.106,0.106c0.036,0.035,0.072,0.072,0.108,0.107    c0.034,0.034,0.069,0.068,0.104,0.104s0.07,0.07,0.106,0.105c0.036,0.036,0.072,0.072,0.108,0.108    c0.035,0.035,0.071,0.069,0.106,0.104c0.035,0.037,0.07,0.071,0.106,0.106c0.036,0.035,0.071,0.071,0.107,0.106    c0.035,0.035,0.07,0.069,0.105,0.104c0.036,0.036,0.072,0.071,0.107,0.106c0.036,0.037,0.072,0.072,0.108,0.107    c0.032,0.033,0.064,0.065,0.097,0.098c0.038,0.039,0.077,0.078,0.115,0.115c0.035,0.035,0.069,0.07,0.104,0.104    c0.035,0.036,0.071,0.071,0.107,0.106c0.035,0.034,0.07,0.069,0.105,0.104c0.036,0.036,0.072,0.071,0.108,0.108    c0.035,0.035,0.069,0.068,0.104,0.104c0.035,0.035,0.07,0.07,0.105,0.105c0.036,0.035,0.071,0.07,0.106,0.105    c0.036,0.036,0.072,0.07,0.107,0.107c0.035,0.035,0.07,0.068,0.104,0.104c0.036,0.036,0.072,0.072,0.108,0.107    c0.035,0.035,0.07,0.07,0.106,0.105c0.037,0.037,0.075,0.074,0.112,0.111c0.034,0.033,0.067,0.066,0.101,0.102    c0.035,0.034,0.069,0.068,0.104,0.104c0.037,0.037,0.073,0.072,0.109,0.109c0.037,0.037,0.074,0.073,0.11,0.109    c0.034,0.034,0.067,0.066,0.101,0.102c0.036,0.035,0.072,0.071,0.108,0.107c0.035,0.036,0.07,0.071,0.106,0.105    c0.035,0.035,0.07,0.07,0.106,0.105c0.037,0.037,0.074,0.074,0.111,0.11c0.033,0.034,0.067,0.067,0.1,0.101    c0.037,0.037,0.074,0.073,0.11,0.11c0.035,0.034,0.071,0.069,0.106,0.104c0.034,0.035,0.069,0.069,0.104,0.104    c0.037,0.036,0.074,0.073,0.111,0.11c0.034,0.033,0.067,0.066,0.102,0.101c0.037,0.038,0.074,0.075,0.111,0.112    c0.034,0.033,0.068,0.066,0.102,0.102c0.035,0.035,0.07,0.07,0.105,0.105c0.037,0.037,0.074,0.074,0.111,0.11    c0.035,0.035,0.07,0.069,0.105,0.104c0.035,0.035,0.069,0.068,0.104,0.104c0.036,0.036,0.071,0.072,0.106,0.107    c0.037,0.035,0.072,0.07,0.107,0.107c0.035,0.034,0.07,0.069,0.106,0.104c0.036,0.038,0.075,0.075,0.112,0.112    c0.033,0.033,0.066,0.066,0.102,0.101c0.034,0.035,0.068,0.069,0.104,0.104c0.037,0.037,0.072,0.072,0.108,0.108    c0.035,0.035,0.071,0.071,0.106,0.106c0.037,0.037,0.074,0.074,0.11,0.111c0.032,0.031,0.064,0.063,0.099,0.096    c0.037,0.039,0.076,0.078,0.115,0.115c0.032,0.034,0.066,0.067,0.102,0.103c0.035,0.034,0.07,0.069,0.105,0.104    c0.035,0.036,0.071,0.072,0.107,0.108c0.035,0.035,0.07,0.069,0.105,0.104c0.037,0.037,0.073,0.073,0.11,0.11    c0.032,0.033,0.065,0.065,0.099,0.099c0.037,0.037,0.073,0.074,0.11,0.11c0.035,0.035,0.069,0.07,0.104,0.104    c0.035,0.037,0.072,0.072,0.107,0.107c0.035,0.036,0.07,0.07,0.105,0.105s0.07,0.07,0.104,0.104    c0.037,0.037,0.073,0.074,0.11,0.11c0.032,0.032,0.065,0.065,0.099,0.101c0.039,0.038,0.077,0.076,0.116,0.115    c0.034,0.033,0.067,0.066,0.103,0.102c0.037,0.037,0.073,0.072,0.11,0.109c0.033,0.034,0.065,0.067,0.101,0.102    c0.035,0.035,0.07,0.07,0.105,0.105c0.037,0.037,0.074,0.074,0.111,0.11c0.033,0.034,0.068,0.069,0.104,0.104    c0.036,0.036,0.072,0.072,0.107,0.107c0.035,0.034,0.068,0.069,0.104,0.104c0.035,0.034,0.071,0.07,0.106,0.105    c0.034,0.035,0.069,0.07,0.104,0.104c0.036,0.037,0.072,0.074,0.109,0.11c0.035,0.036,0.07,0.071,0.105,0.106    c0.035,0.033,0.068,0.067,0.104,0.103c0.037,0.037,0.073,0.073,0.109,0.11c0.035,0.033,0.067,0.066,0.103,0.102    c0.038,0.038,0.075,0.075,0.113,0.113c0.034,0.035,0.069,0.068,0.104,0.104c0.034,0.035,0.068,0.069,0.104,0.104    c0.035,0.036,0.07,0.071,0.105,0.106c0.034,0.033,0.068,0.067,0.104,0.103c0.037,0.038,0.076,0.075,0.113,0.114    c0.033,0.033,0.066,0.065,0.101,0.1c0.039,0.039,0.078,0.078,0.117,0.115c0.03,0.033,0.063,0.063,0.096,0.097    c0.037,0.037,0.074,0.074,0.11,0.112c0.035,0.033,0.068,0.066,0.103,0.101c0.036,0.037,0.072,0.073,0.109,0.109    c0.034,0.034,0.069,0.069,0.104,0.104c0.035,0.036,0.07,0.071,0.106,0.107c0.037,0.037,0.073,0.072,0.11,0.109    c0.033,0.035,0.067,0.067,0.103,0.103c0.035,0.036,0.071,0.071,0.106,0.106c0.037,0.037,0.074,0.073,0.11,0.109    c0.032,0.033,0.063,0.064,0.099,0.098c0.037,0.039,0.076,0.078,0.115,0.115c0.032,0.034,0.065,0.067,0.1,0.102    c0.037,0.037,0.074,0.072,0.109,0.109c0.035,0.034,0.069,0.068,0.104,0.104c0.034,0.035,0.071,0.07,0.106,0.105    c0.034,0.036,0.07,0.071,0.105,0.106c0.035,0.034,0.07,0.071,0.105,0.106c0.037,0.037,0.074,0.072,0.111,0.109    c0.033,0.034,0.066,0.066,0.102,0.102c0.035,0.037,0.072,0.072,0.107,0.107c0.034,0.034,0.067,0.066,0.102,0.102    c0.039,0.039,0.076,0.076,0.115,0.115c0.032,0.032,0.064,0.064,0.098,0.098c0.037,0.039,0.076,0.076,0.115,0.115    c0.035,0.034,0.068,0.068,0.104,0.104c0.033,0.033,0.066,0.066,0.1,0.102c0.038,0.037,0.077,0.076,0.115,0.114    c0.034,0.034,0.068,0.067,0.104,0.103s0.069,0.07,0.104,0.104c0.036,0.037,0.072,0.072,0.108,0.108    c0.033,0.033,0.066,0.067,0.102,0.103c0.037,0.037,0.074,0.074,0.111,0.111c0.033,0.034,0.068,0.067,0.104,0.103    c0.038,0.039,0.076,0.077,0.115,0.115c0.031,0.032,0.064,0.063,0.098,0.096c0.035,0.037,0.071,0.073,0.108,0.11    c0.035,0.035,0.069,0.069,0.104,0.104s0.071,0.071,0.106,0.106c0.036,0.036,0.071,0.071,0.106,0.106s0.07,0.069,0.104,0.104    c0.038,0.038,0.075,0.075,0.112,0.112c0.033,0.033,0.066,0.064,0.1,0.099c0.036,0.037,0.073,0.074,0.111,0.111    c0.033,0.034,0.068,0.067,0.104,0.103c0.035,0.036,0.071,0.072,0.107,0.108c0.035,0.034,0.07,0.069,0.105,0.104    s0.07,0.071,0.105,0.106c0.036,0.036,0.072,0.071,0.107,0.108c0.035,0.035,0.069,0.068,0.104,0.104    c0.036,0.036,0.072,0.072,0.108,0.107c0.035,0.035,0.07,0.069,0.104,0.104c0.034,0.034,0.067,0.067,0.103,0.103    c0.037,0.037,0.074,0.076,0.113,0.112c0.032,0.034,0.065,0.067,0.101,0.101c0.036,0.037,0.071,0.072,0.108,0.108    c0.034,0.036,0.069,0.071,0.104,0.106c0.038,0.037,0.075,0.076,0.114,0.113c0.033,0.033,0.064,0.064,0.098,0.098    c0.037,0.037,0.073,0.072,0.109,0.109c0.035,0.035,0.068,0.068,0.104,0.104c0.037,0.037,0.074,0.074,0.112,0.111    c0.032,0.033,0.065,0.066,0.1,0.101c0.036,0.036,0.073,0.073,0.109,0.108c0.036,0.037,0.073,0.074,0.11,0.111    c0.035,0.033,0.067,0.067,0.103,0.102c0.035,0.035,0.071,0.07,0.106,0.105c0.035,0.036,0.07,0.071,0.105,0.106    c0.035,0.034,0.07,0.071,0.105,0.106c0.037,0.035,0.072,0.071,0.109,0.107c0.034,0.035,0.068,0.068,0.104,0.104    c0.037,0.037,0.072,0.073,0.109,0.109c0.034,0.035,0.068,0.069,0.104,0.104c0.034,0.035,0.069,0.069,0.104,0.104    c0.036,0.038,0.073,0.075,0.11,0.112c0.034,0.033,0.067,0.066,0.103,0.101c0.037,0.038,0.075,0.076,0.114,0.115    c0.033,0.033,0.065,0.065,0.101,0.101s0.072,0.071,0.107,0.107c0.036,0.036,0.071,0.07,0.107,0.105    c0.035,0.035,0.068,0.069,0.104,0.104c0.033,0.034,0.067,0.067,0.102,0.103c0.037,0.037,0.076,0.075,0.113,0.113    c0.033,0.033,0.067,0.067,0.103,0.102c0.036,0.037,0.073,0.074,0.11,0.11c0.035,0.036,0.07,0.071,0.106,0.106    c0.034,0.035,0.069,0.068,0.104,0.104s0.069,0.07,0.104,0.105s0.071,0.07,0.106,0.105s0.07,0.071,0.105,0.106    c0.035,0.036,0.071,0.071,0.105,0.106c0.035,0.035,0.072,0.07,0.106,0.105c0.037,0.037,0.074,0.074,0.111,0.111    c0.034,0.033,0.067,0.066,0.103,0.101c0.034,0.035,0.07,0.071,0.105,0.106s0.07,0.07,0.105,0.105s0.071,0.071,0.106,0.105    c0.035,0.037,0.071,0.072,0.106,0.106c0.035,0.035,0.07,0.071,0.105,0.106c0.036,0.035,0.072,0.072,0.107,0.107    s0.07,0.069,0.104,0.104c0.036,0.036,0.073,0.071,0.109,0.108c0.034,0.035,0.069,0.068,0.104,0.104    c0.035,0.035,0.071,0.07,0.106,0.105c0.033,0.035,0.068,0.069,0.104,0.104c0.036,0.037,0.072,0.073,0.109,0.108    c0.033,0.035,0.068,0.07,0.104,0.104c0.037,0.037,0.073,0.073,0.11,0.11c0.036,0.035,0.073,0.072,0.11,0.107    c0.033,0.035,0.068,0.069,0.104,0.104c0.033,0.032,0.066,0.065,0.1,0.1c0.037,0.038,0.076,0.076,0.113,0.114    c0.033,0.033,0.067,0.066,0.102,0.102c0.037,0.037,0.072,0.072,0.109,0.108c0.034,0.035,0.07,0.071,0.105,0.106    s0.072,0.072,0.109,0.107c0.035,0.036,0.069,0.071,0.105,0.105c0.034,0.035,0.068,0.07,0.104,0.104    c0.035,0.036,0.071,0.071,0.106,0.106s0.071,0.07,0.106,0.105c0.035,0.036,0.072,0.072,0.108,0.108    c0.034,0.035,0.068,0.069,0.104,0.104c0.035,0.037,0.072,0.072,0.109,0.108c0.033,0.035,0.067,0.069,0.104,0.104    c0.035,0.035,0.07,0.07,0.105,0.105c0.035,0.036,0.071,0.071,0.106,0.105c0.035,0.035,0.071,0.072,0.106,0.106    c0.035,0.036,0.07,0.071,0.105,0.106c0.036,0.037,0.073,0.072,0.109,0.109c0.033,0.033,0.068,0.067,0.104,0.103    c0.036,0.036,0.072,0.071,0.107,0.108c0.035,0.034,0.07,0.068,0.104,0.104s0.069,0.068,0.104,0.104    c0.035,0.036,0.07,0.071,0.105,0.106c0.036,0.037,0.072,0.073,0.108,0.108c0.036,0.037,0.073,0.072,0.108,0.109    c0.035,0.035,0.071,0.07,0.106,0.105s0.069,0.07,0.104,0.104s0.068,0.068,0.104,0.103c0.036,0.037,0.072,0.072,0.107,0.108    c0.035,0.035,0.072,0.071,0.106,0.106c0.035,0.035,0.071,0.07,0.106,0.105c0.035,0.036,0.072,0.072,0.109,0.108    c0.032,0.034,0.066,0.067,0.102,0.103c0.037,0.037,0.074,0.074,0.111,0.11c0.034,0.036,0.069,0.069,0.104,0.104    c0.034,0.035,0.067,0.067,0.103,0.103c0.037,0.038,0.074,0.075,0.111,0.112C56.102,77.292,59.868,79,64.029,79    c8.271,0,15-6.74,15-15C79.029,59.843,77.322,56.072,74.574,53.352z" enable-background="new    " fill="url(#SVGID_3_)" opacity="0.3"/></g></g><path d="M32,47c-8.271,0-15-6.74-15-15s6.729-15,15-15c8.271,0,15,6.74,15,15S40.271,47,32,47L32,47z   M44.65,34.031c-0.438-0.139-3.965-1.189-7.98-0.547c1.676,4.599,2.357,8.345,2.488,9.121C42.033,40.666,44.08,37.592,44.65,34.031  L44.65,34.031z M37.006,43.777c-0.191-1.123-0.936-5.034-2.734-9.702c-0.025,0.01-0.057,0.019-0.084,0.028  c-7.227,2.515-9.819,7.521-10.051,7.988c2.172,1.692,4.903,2.701,7.864,2.701C33.775,44.795,35.467,44.434,37.006,43.777  L37.006,43.777z M22.481,40.557c0.291-0.496,3.807-6.312,10.416-8.444c0.166-0.055,0.334-0.105,0.504-0.152  c-0.319-0.728-0.672-1.455-1.039-2.172c-6.397,1.911-12.606,1.831-13.167,1.82c-0.004,0.13-0.006,0.26-0.006,0.391  C19.188,35.286,20.436,38.287,22.481,40.557L22.481,40.557z M19.458,29.379c0.573,0.008,5.852,0.031,11.845-1.559  c-2.123-3.769-4.412-6.938-4.75-7.399C22.969,22.109,20.29,25.409,19.458,29.379L19.458,29.379z M28.998,19.561  c0.354,0.474,2.682,3.638,4.781,7.49c4.555-1.705,6.484-4.294,6.715-4.622c-2.264-2.005-5.238-3.224-8.494-3.224  C30.967,19.205,29.961,19.328,28.998,19.561L28.998,19.561z M41.918,23.908c-0.27,0.365-2.418,3.114-7.154,5.045  c0.299,0.61,0.584,1.229,0.85,1.854c0.096,0.222,0.188,0.441,0.275,0.66c4.264-0.535,8.5,0.323,8.922,0.412  C44.783,28.859,43.703,26.086,41.918,23.908L41.918,23.908z" fill="#FFFFFF" id="ball_1_"/></svg>