<?xml version="1.0" ?><!DOCTYPE svg  PUBLIC '-//W3C//DTD SVG 1.1//EN'  'http://www.w3.org/Graphics/SVG/1.1/DTD/svg11.dtd'><svg enable-background="new 0 0 64 64" height="64px" id="Behance" version="1.1" viewBox="0 0 64 64" width="64px" xml:space="preserve" xmlns="http://www.w3.org/2000/svg" xmlns:xlink="http://www.w3.org/1999/xlink"><linearGradient gradientTransform="matrix(1 0 0 -1 -274 -299)" gradientUnits="userSpaceOnUse" id="Circle_Shadow_1_" x1="338" x2="306" y1="-362.9995" y2="-330.9995"><stop offset="0.3163" style="stop-color:#FFFFFF;stop-opacity:0"/><stop offset="0.3508" style="stop-color:#E9E9E9;stop-opacity:0.0504"/><stop offset="0.4543" style="stop-color:#ACACAC;stop-opacity:0.2018"/><stop offset="0.5572" style="stop-color:#787878;stop-opacity:0.3523"/><stop offset="0.6569" style="stop-color:#4D4D4D;stop-opacity:0.4981"/><stop offset="0.7528" style="stop-color:#2B2B2B;stop-opacity:0.6385"/><stop offset="0.8441" style="stop-color:#131313;stop-opacity:0.7719"/><stop offset="0.9286" style="stop-color:#050505;stop-opacity:0.8956"/><stop offset="1" style="stop-color:#000000"/></linearGradient><polygon enable-background="new    " fill="url(#Circle_Shadow_1_)" id="Circle_Shadow" opacity="0.2" points="64,64 64,30.059   48.971,15.029 15.029,48.971 30.059,64 "/><circle cx="32" cy="32" fill="#1478FF" id="Circle" r="24"/><g id="Be_Shadow"><g><defs><circle cx="32" cy="32" id="SVGID_1_" r="24"/></defs><clipPath id="SVGID_2_"><use overflow="visible" xlink:href="#SVGID_1_"/></clipPath><linearGradient gradientTransform="matrix(1 0 0 -1 -274 -299)" gradientUnits="userSpaceOnUse" id="SVGID_3_" x1="346.8447" x2="292.5342" y1="-374.2769" y2="-319.9664"><stop offset="0" style="stop-color:#FFFFFF;stop-opacity:0"/><stop offset="0.3207" style="stop-color:#A4A4A4;stop-opacity:0.3207"/><stop offset="0.6527" style="stop-color:#4D4D4D;stop-opacity:0.6527"/><stop offset="0.8871" style="stop-color:#151515;stop-opacity:0.8871"/><stop offset="1" style="stop-color:#000000"/></linearGradient><path clip-path="url(#SVGID_2_)" d="M78,67.365h0.859    c0.092-0.484,0.141-0.986,0.141-1.5c0-2.118-0.822-4.027-2.141-5.393c-0.037-0.039-0.077-0.076-0.116-0.115    c-0.033-0.035-0.069-0.067-0.104-0.104c-0.033-0.035-0.068-0.066-0.102-0.102c-0.034-0.035-0.071-0.068-0.105-0.104    c-0.033-0.037-0.072-0.069-0.105-0.106c-0.036-0.039-0.075-0.073-0.111-0.11c-0.033-0.037-0.072-0.069-0.105-0.104    s-0.068-0.066-0.104-0.102c-0.035-0.039-0.074-0.074-0.109-0.111c-0.033-0.035-0.069-0.065-0.104-0.102    c-0.033-0.036-0.07-0.068-0.104-0.104c-0.037-0.039-0.075-0.074-0.111-0.111c-0.033-0.035-0.068-0.066-0.104-0.102    c-0.035-0.039-0.074-0.074-0.109-0.111c-0.034-0.035-0.07-0.067-0.104-0.104c-0.035-0.035-0.072-0.068-0.107-0.105    c-0.033-0.037-0.07-0.068-0.104-0.104c-0.034-0.037-0.071-0.071-0.108-0.106c-0.031-0.035-0.067-0.067-0.103-0.103    c-0.034-0.039-0.073-0.073-0.11-0.11c-0.033-0.035-0.067-0.066-0.103-0.103c-0.035-0.038-0.073-0.073-0.11-0.11    c-0.033-0.035-0.067-0.065-0.102-0.101C74.379,58,74.34,57.966,74.305,57.93c-0.033-0.037-0.072-0.07-0.106-0.106    c-0.033-0.036-0.069-0.068-0.104-0.104c-0.033-0.037-0.072-0.07-0.105-0.105c-0.034-0.036-0.07-0.068-0.104-0.104    c-0.036-0.038-0.075-0.073-0.11-0.11c-0.01-0.012-0.021-0.021-0.03-0.031H75v-2h-0.105V55.26h-0.106v-0.105h-0.104v-0.105h-0.106    v-0.105h-0.106v-0.105h-0.105V54.73h-0.106v-0.106h-0.106V54.52h-0.105v-0.106h-0.105v-0.104h-0.105v-0.105H73.73v-0.105h-0.106    v-0.105h-0.106v-0.105h-0.105v-0.105h-0.105v-0.106H73.2V53.57h-0.106v-0.11h-0.105v-0.106h-0.105v-0.104h-0.105v-0.106h-0.106    v-0.104h-0.106v-0.104H72.46v-0.106h-0.106v-0.104h-0.105v-0.105H72.13v-0.105h-0.106v-0.105h-0.105V52.3h-0.105v-0.104h-0.106    V52.09H71.6v-0.105h-0.104v-0.106h-0.106v-0.104h-0.105V51.66h-0.106v-0.105H71.07v-0.105h-0.11v-0.106h-0.106v-0.104h-0.105    v-0.105h-0.105v-0.105h-0.105v-0.105h-0.105v-0.105h-0.106v-0.105h-0.106v-0.105h-0.105V50.5h-0.106v-0.109H69.9v-0.105h-0.104    V50.18h-0.106v-0.105h-0.105v-0.106h-0.105v-0.108h-0.106v-0.104H69.26v-0.106h-0.105v-0.104h-0.106v-0.106h-0.108v-0.104h-0.105    v-0.106h-0.105v-0.104h-0.106v-0.104h-0.106v-0.105h-0.104v-0.105h-0.106V48.7h-0.105v-0.11H68.09v-0.105h-0.105V48.38h-0.106    v-0.106h-0.106v-0.105h-0.105v-0.105h-0.105v-0.104h-0.105v-0.106H67.35v-0.104h-0.106v-0.106h-0.106v-0.104h-0.105v-0.104H66.92    v-0.106h-0.105v-0.104h-0.106v-0.105h-0.104v-0.106h-0.106v-0.104h-0.106V46.79h-0.105v-0.104H66.18v-0.106H66.07v-0.104h-0.106    v-0.105h-0.106v-0.105h-0.105v-0.105h-0.105v-0.106H65.54v-0.104h-0.106v-0.105h-0.105v-0.105h-0.107v-0.105h-0.107V45.52h-0.105    v-0.104H64.9v-0.104h-0.106v-0.106h-0.106v-0.106h-0.104V44.99h-0.106v-0.105h-0.105v-0.105h-0.105v-0.105h-0.106v-0.105H64.05    v-0.105h-0.106v-0.105h-0.104V44.25H63.73v-0.105h-0.105v-0.105H63.52v-0.105h-0.106v-0.105h-0.106v-0.105h-0.105v-0.105h-0.105    v-0.105h-0.106v-0.105h-0.105v-0.105h-0.106v-0.111h-0.105v-0.104h-0.105V42.98H62.46v-0.106h-0.106V42.77h-0.105v-0.106h-0.105    v-0.104h-0.113v-0.106h-0.105v-0.104h-0.105v-0.105h-0.106v-0.105h-0.106v-0.105H61.5V41.92h-0.105v-0.105h-0.106V41.71H61.18    v-0.104h-0.105v-0.106h-0.106v-0.106h-0.108v-0.104h-0.105V41.18h-0.105v-0.104h-0.105v-0.106h-0.105v-0.105h-0.106v-0.105h-0.106    V40.65h-0.105v-0.106H60.01v-0.104h-0.105v-0.105h-0.106v-0.105h-0.104v-0.105h-0.106v-0.105H59.48v-0.105h-0.105v-0.105H59.27    v-0.105H59.16v-0.105h-0.107V39.49h-0.104v-0.11h-0.106v-0.106h-0.105v-0.104H58.63v-0.104h-0.106v-0.106h-0.105v-0.104h-0.105    v-0.105h-0.105v-0.105H58.1v-0.105H57.99v-0.105h-0.106v-0.105h-0.106v-0.105h-0.105v-0.105h-0.105V38.01h-0.105v-0.105h-0.105    v-0.105h-0.106v-0.105h-0.108V37.58h-0.106v-0.105h-0.106v-0.105H56.82v-0.105h-0.105v-0.105h-0.105v-0.105h-0.106v-0.104h-0.106    v-0.106h-0.105v-0.105h-0.105v-0.105h-0.106v-0.105h-0.108V36.42h-0.107v-0.109h-0.104v-0.105h-0.106V36.1h-0.105v-0.105h-0.105    v-0.105h-0.106v-0.109h-0.106v-0.105h-0.105v-0.105h-0.105v-0.104h-0.105v-0.104h-0.105v-0.106H54.7v-0.106h-0.106v-0.104h-0.104    v-0.104h-0.106v-0.106H54.27v-0.104h-0.105V34.62h-0.105v-0.11H53.95v-0.105h-0.106v-0.105h-0.105v-0.105h-0.105v-0.104h-0.105    V33.98H53.42v-0.105h-0.105V33.77h-0.105v-0.105H53.1v-0.105h-0.105v-0.105h-0.105v-0.105h-0.105V33.24h-0.107v-0.106H52.57    v-0.106h-0.105v-0.104h-0.105v-0.104H52.25V32.71h-0.107v-0.106h-0.104v-0.105h-0.106v-0.105h-0.105v-0.106h-0.105v-0.106h-0.106    v-0.105h-0.105V31.97h-0.106v-0.106h-0.106v-0.106h-0.106v-0.106H51.08v-0.105h-0.105V31.44h-0.106v-0.106h-0.106v-0.105h-0.105    v-0.106H50.55v-0.105h-0.106v-0.106h-0.105v-0.106h-0.105V30.7h-0.105v-0.105h-0.105v-0.106H49.91v-0.106h-0.105v-0.105h-0.106    v-0.106h-0.105v-0.105h-0.106v-0.106h-0.105v-0.105h-0.105V29.75h-0.106v-0.11h-0.108v-0.106h-0.106v-0.106H48.85v-0.105h-0.106    v-0.106h-0.106v-0.106h-0.105v-0.106h-0.106V28.9h-0.106v-0.106h-0.105v-0.106h-0.105v-0.105h-0.105v-0.106h-0.105V28.37H47.79    v-0.106h-0.106v-0.105h-0.105v-0.106h-0.105v-0.106h-0.106V27.84H47.26v-0.106h-0.105v-0.105H47.04v-0.106h-0.106v-0.105h-0.104    v-0.105h-0.106v-0.106h-0.105V27.1h-0.105v-0.106h-0.107v-0.106h-0.105v-0.105h-0.105v-0.106h-0.106V26.57h-0.104v-0.106h-0.106    v-0.106H45.77v-0.105h-0.105v-0.106h-0.107v-0.106h-0.104v-0.105h-0.106V25.83H45.24v-0.106h-0.105v-0.105H45.02v-0.106h-0.105    v-0.106h-0.105V25.3H44.7v-0.106h-0.104v-0.105h-0.107v-0.106h-0.105v-0.106h-0.105v-0.105H44.17v-0.106h-0.105V24.56h-0.106    v-0.106h-0.106v-0.106h-0.105v-0.105h-0.105v-0.106h-0.106v-0.106H43.43v-0.105h-0.106V23.82h-0.106v-0.106h-0.105v-0.105H43V23.5    h-7v2h0.105v0.106h0.106v0.106h0.106v0.106h0.105v0.106h0.105v0.105h0.105v0.106h0.106v0.106h0.106v0.105h0.105v0.106h0.105v0.106    h0.105v0.106h0.107v0.106h0.104v0.105h0.106v0.106h0.061c-1.328,0.533-2.465,1.482-3.27,2.704    c-0.02-0.019-0.041-0.033-0.062-0.051c-0.036-0.037-0.071-0.073-0.108-0.109c-0.035-0.036-0.069-0.07-0.104-0.104    c-0.035-0.036-0.069-0.071-0.106-0.106c-0.035-0.036-0.07-0.071-0.106-0.106c-0.034-0.036-0.069-0.07-0.104-0.104    c-0.035-0.037-0.07-0.072-0.107-0.108c-0.034-0.035-0.068-0.069-0.104-0.103c-0.037-0.037-0.072-0.073-0.109-0.109    c-0.034-0.036-0.069-0.07-0.105-0.105c-0.033-0.035-0.068-0.069-0.104-0.103c-0.036-0.037-0.072-0.073-0.109-0.109    c-0.035-0.036-0.07-0.071-0.105-0.106c-0.035-0.036-0.07-0.07-0.106-0.105c-0.034-0.036-0.069-0.07-0.104-0.104    c-0.035-0.037-0.07-0.071-0.106-0.107c-0.035-0.036-0.069-0.07-0.104-0.105c-0.037-0.037-0.072-0.072-0.108-0.107    c-0.035-0.036-0.069-0.07-0.105-0.104c-0.035-0.037-0.071-0.072-0.108-0.107c-0.034-0.035-0.068-0.069-0.104-0.103    c-0.036-0.037-0.072-0.073-0.109-0.109c-0.035-0.036-0.069-0.07-0.104-0.104c-0.035-0.036-0.07-0.071-0.106-0.106    c-0.035-0.036-0.071-0.071-0.107-0.106c-0.035-0.036-0.071-0.071-0.107-0.106c-0.035-0.036-0.07-0.07-0.105-0.105    c-0.035-0.036-0.07-0.071-0.106-0.105c-0.036-0.037-0.071-0.071-0.107-0.106c-0.035-0.036-0.07-0.071-0.106-0.106    c-0.035-0.036-0.07-0.071-0.106-0.106c-0.035-0.036-0.07-0.071-0.106-0.105c-0.035-0.036-0.07-0.071-0.106-0.105    c-0.035-0.037-0.071-0.072-0.107-0.107c-0.035-0.036-0.069-0.07-0.105-0.105c-0.035-0.036-0.07-0.071-0.106-0.106    c-0.035-0.036-0.07-0.071-0.106-0.105c-0.035-0.036-0.07-0.071-0.105-0.105c-0.036-0.037-0.071-0.072-0.108-0.107    c-0.035-0.036-0.07-0.07-0.106-0.105c-0.035-0.036-0.07-0.071-0.106-0.105c-0.034-0.036-0.069-0.07-0.104-0.104    c-0.035-0.036-0.071-0.072-0.107-0.107c-0.035-0.036-0.071-0.071-0.107-0.107c-0.035-0.035-0.069-0.07-0.105-0.104    c-0.036-0.037-0.072-0.073-0.109-0.109c-0.034-0.035-0.067-0.068-0.103-0.102c-0.036-0.037-0.071-0.072-0.108-0.108    c-0.035-0.037-0.07-0.071-0.106-0.106c-0.035-0.035-0.069-0.069-0.104-0.104c-0.035-0.037-0.071-0.072-0.107-0.107    c-0.035-0.036-0.07-0.071-0.106-0.106c-0.035-0.036-0.07-0.07-0.106-0.105c-0.035-0.036-0.071-0.072-0.107-0.107    c-0.914-0.944-2.18-1.53-3.587-1.53l0,0h-8v9v1v9h0.106v0.105h0.106v0.105h0.106v0.105h0.106v0.105h0.106v0.105h0.106v0.104h0.106    v0.106h0.106v0.104h0.107v0.105h0.106v0.106h0.106v0.105h0.106v0.105h0.106v0.104h0.106v0.106h0.106v0.104h0.106v0.104h0.107V43.3    h0.106v0.104h0.106v0.106h0.106v0.105h0.106v0.104h0.106v0.106h0.106v0.106h0.106v0.104h0.106v0.104h0.106v0.105h0.107v0.105    h0.106v0.106h0.106v0.104h0.106v0.105h0.106v0.105h0.106v0.105h0.106v0.105h0.106V45.1h0.106v0.105h0.107v0.105h0.106v0.105h0.106    v0.105h0.106v0.105h0.106v0.105h0.106v0.105h0.106v0.105h0.106v0.105h0.106v0.105h0.106v0.104h0.106v0.106h0.106v0.105h0.106    v0.104h0.106v0.106h0.106v0.104h0.106v0.106h0.106v0.105h0.106v0.105h0.106v0.104h0.106v0.104h0.105v0.105h0.106v0.105h0.106    v0.106h0.106v0.104h0.106v0.106h0.106v0.104h0.106v0.105h0.106v0.106h0.106v0.104h0.106v0.105h0.106v0.105h0.106v0.105h0.106    v0.105h0.106v0.105h0.106v0.105h0.105V49h0.106v0.105h0.106v0.105h0.106v0.105h0.106v0.104h0.106v0.106h0.106v0.104h0.105v0.106    h0.106v0.104h0.106v0.104h0.106v0.106h0.106v0.105h0.106v0.106h0.106v0.104h0.105v0.104h0.106v0.105h0.106v0.105h0.106v0.106    h0.106v0.104h0.106v0.105h0.106v0.105h0.106v0.106h0.105v0.104h0.106v0.105H27.1v0.105h0.106v0.105h0.106v0.105h0.106v0.105h0.107    v0.105h0.106v0.105h0.106v0.105h0.106v0.105h0.106v0.105h0.106v0.105h0.106v0.104h0.106v0.106h0.106v0.105h0.107V52.9h0.106v0.104    h0.106v0.104h0.106v0.106h0.106v0.106h0.106v0.104h0.106v0.104h0.106v0.106h0.107v0.105h0.106v0.104h0.106v0.106h0.106v0.104    h0.106v0.106h0.106v0.104h0.105v0.105h0.106v0.105h0.106v0.106h0.106v0.104h0.106v0.105h0.106v0.105H30.6v0.105h0.105v0.105h0.106    v0.105h0.106v0.105h0.106v0.105h0.106v0.105h0.106v0.105h0.106v0.104h0.106v0.106h0.105v0.105h0.106v0.105h0.106v0.104h0.106    v0.106h0.106v0.104h0.106v0.106h0.107v0.104h0.106v0.106h0.106V56.8h0.106v0.104h0.106v0.106h0.105v0.104h0.106v0.105h0.106v0.105    h0.106v0.107h0.104v0.104h0.106v0.104h0.106v0.105h0.105v0.105h0.105v0.106h0.106v0.104h0.106v0.105h0.104v0.105h0.106v0.105    h0.105v0.105h0.106v0.105h0.106v0.105h0.105v0.104h0.105v0.106h0.105v0.104h0.105v0.106h0.106v0.105h0.106v0.104h0.105v0.106    h0.105v0.104h0.107v0.106h0.105v0.104h0.105v0.104h0.105v0.106h0.105v0.106h0.106v0.104h0.106v0.104h0.105v0.106h0.105v0.104    h0.105v0.106h0.105v0.104h0.106v0.105h0.106v0.106h0.105v0.104h0.106v0.106h0.106v0.104h0.104v0.105h0.106v0.105h0.105v0.105    h0.105v0.105h0.106v0.105h0.106v0.105h0.105v0.104h0.105v0.106h0.105v0.104h0.106v0.106h0.106v0.104h0.105v0.104h0.105v0.106    h0.106v0.106h0.106v0.105h0.104v0.104h0.106v0.106h0.105v0.104H38.9v0.106h0.105v0.104h0.105v0.104h0.106v0.106h0.105v0.104h0.106    v0.106h0.105v0.104h0.105v0.105h0.106v0.105h0.106v0.105h0.105v0.105h0.105v0.105h0.105v0.105h0.105V64.6h0.106v0.105h0.106v0.105    h0.105v0.105H40.7v0.105h0.106v0.104h0.104v0.106h0.106v0.105h0.105v0.105h0.105v0.104h0.106v0.106h0.106v0.104h0.105v0.106h0.105    v0.104h0.105v0.105h0.105v0.106h0.106v0.105h0.106v0.105h0.105v0.104h0.106v0.104h0.104v0.106h0.106v0.104h0.106v0.106h0.105    v0.104h0.105v0.106h0.106v0.104h0.106v0.105h0.105v0.105h0.105v0.105h0.105v0.106h0.106v0.104h0.106v0.105h0.105v0.105h0.105    v0.105h0.106v0.105h0.104v0.105h0.106v0.105h0.106V68.5h0.105v0.105h0.105v0.104h0.106v0.106h0.106v0.105h0.105v0.105h0.105v0.104    h0.105v0.106h0.106v0.104h0.106v0.106h0.105v0.105h0.105v0.104h0.106v0.106h0.104v0.104h0.106v0.104h0.106v0.106h0.105v0.104    h0.106v0.106H46.1v0.104h0.105v0.105h0.105v0.105h0.105v0.105h0.105v0.106h0.106v0.104h0.106v0.105h0.105v0.105h0.105v0.105h0.105    v0.105h0.105v0.105h0.106v0.105h0.106v0.105h0.105v0.105h0.106v0.105h0.106v0.105h0.105v0.105h0.105v0.105h0.105v0.104h0.105V72.4    h0.106v0.104h0.106v0.106h0.105v0.105h0.105v0.104h0.105v0.106h0.106v0.104h0.106v0.106H49v0.104h10c2.762,0,5-2.237,5-5    c0-0.088-0.02-0.171-0.023-0.258c0.026,0.028,0.058,0.054,0.084,0.081c0.035,0.037,0.072,0.07,0.107,0.107    c0.036,0.039,0.075,0.074,0.111,0.112c0.031,0.032,0.064,0.062,0.097,0.095c0.037,0.039,0.077,0.075,0.114,0.114    c0.031,0.034,0.066,0.063,0.099,0.099c0.036,0.039,0.076,0.074,0.113,0.112c0.034,0.037,0.071,0.069,0.106,0.104    c0.031,0.035,0.065,0.064,0.1,0.1c0.037,0.04,0.076,0.076,0.115,0.115c0.031,0.033,0.065,0.064,0.098,0.098    c0.036,0.038,0.074,0.073,0.111,0.111c0.033,0.035,0.068,0.066,0.104,0.102c0.034,0.038,0.072,0.072,0.107,0.108    c0.035,0.038,0.074,0.071,0.108,0.108c0.033,0.034,0.068,0.065,0.103,0.101c0.035,0.038,0.074,0.071,0.109,0.108    c0.032,0.035,0.068,0.067,0.103,0.103c0.036,0.04,0.077,0.075,0.114,0.114c0.031,0.033,0.066,0.064,0.1,0.099    c0.033,0.037,0.07,0.069,0.105,0.104c0.035,0.039,0.074,0.074,0.11,0.111c0.034,0.036,0.07,0.068,0.104,0.104    c0.033,0.037,0.07,0.07,0.105,0.105c0.034,0.037,0.07,0.069,0.105,0.105c0.033,0.035,0.07,0.068,0.104,0.104    c0.035,0.037,0.073,0.071,0.108,0.107c0.034,0.037,0.071,0.07,0.106,0.105c0.033,0.036,0.07,0.069,0.105,0.105    c1.268,1.365,3.021,2.21,4.961,2.21c2.686,0,5.016-1.622,6.189-4h-0.168c0.019-0.037,0.043-0.069,0.062-0.106h-0.167    c0.02-0.035,0.042-0.068,0.061-0.104h-0.166c0.02-0.036,0.043-0.068,0.062-0.104h-0.169c0.019-0.037,0.043-0.07,0.062-0.106    h-0.165c0.018-0.036,0.041-0.068,0.061-0.105H77.49c0.019-0.036,0.043-0.069,0.062-0.106h-0.167    c0.02-0.035,0.042-0.067,0.061-0.104h-0.166c0.019-0.036,0.041-0.067,0.061-0.104h-0.168c0.02-0.037,0.043-0.069,0.063-0.106    h-0.168c0.02-0.036,0.043-0.067,0.062-0.104h-0.167c0.02-0.037,0.043-0.069,0.063-0.106h-0.168    c0.019-0.036,0.041-0.067,0.061-0.104H76.75c0.02-0.037,0.042-0.068,0.061-0.105h-0.17c0.019-0.037,0.043-0.068,0.062-0.105    h-0.167c0.02-0.037,0.042-0.068,0.061-0.105h-0.168c0.02-0.037,0.043-0.069,0.063-0.105h-0.167    c0.019-0.037,0.042-0.068,0.061-0.105h-0.166c0.019-0.036,0.042-0.068,0.062-0.105h-0.168c0.017-0.031,0.037-0.062,0.055-0.095H78    V67.365z" enable-background="new    " fill="url(#SVGID_3_)" opacity="0.2"/></g></g><g id="Be"><path d="M46,35.5h0.859C46.951,35.016,47,34.514,47,34c0-4.143-3.134-7.5-7-7.5s-7,3.357-7,7.5   c0,4.143,3.134,7.5,7,7.5c2.686,0,5.016-1.622,6.189-4h-3.705c-0.684,0.616-1.541,1-2.484,1c-1.738,0-3.204-1.256-3.755-3h7.51H46z    M36.245,32.5c0.551-1.744,2.017-3,3.755-3s3.204,1.256,3.755,3H36.245z" fill="#FFFFFF" id="e_2_"/><rect fill="#FFFFFF" height="2" id="line_2_" width="7" x="36" y="23.5"/><path d="M27.867,31.588C29.154,30.683,30,29.193,30,27.5c0-2.761-2.239-5-5-5l0,0h-8v9v1v9h10   c2.762,0,5-2.238,5-5C32,34.035,30.213,31.999,27.867,31.588z M20,25.5h5c1.104,0,2,0.896,2,2s-0.896,2-2,2h-5V25.5z M26,38.5h-6   v-5h6c1.141,0.23,2,1.29,2,2.5S27.141,38.27,26,38.5z" fill="#FFFFFF" id="B_2_"/></g></svg>